<?xml version="1.0" encoding="UTF-8"?>
<svg xmlns="http://www.w3.org/2000/svg" xmlns:xlink="http://www.w3.org/1999/xlink" width="16px" height="15px" viewBox="0 0 16 15" version="1.1">
<g id="surface1">
<path style=" stroke:none;fill-rule:nonzero;fill:rgb(0%,0%,0%);fill-opacity:1;" d="M 3.875 13.125 L 0.785156 13.125 L 0.785156 4.367188 L 3.875 4.367188 Z M 2.324219 3.167969 C 1.335938 3.167969 0.535156 2.445312 0.535156 1.578125 C 0.535156 0.707031 1.335938 0 2.324219 0 C 3.316406 0 4.121094 0.707031 4.121094 1.574219 C 4.121094 2.445312 3.316406 3.167969 2.324219 3.167969 Z M 15.460938 13.125 L 12.375 13.125 L 12.375 8.859375 C 12.375 7.84375 12.351562 6.539062 10.761719 6.539062 C 9.152344 6.539062 8.910156 7.648438 8.910156 8.785156 L 8.910156 13.125 L 5.816406 13.125 L 5.816406 4.367188 L 8.785156 4.367188 L 8.785156 5.558594 L 8.828125 5.558594 C 9.238281 4.867188 10.25 4.140625 11.757812 4.140625 C 14.890625 4.140625 15.464844 5.957031 15.464844 8.3125 L 15.464844 13.125 Z M 15.460938 13.125 "/>
</g>
</svg>
